<svg width="16" height="16" viewBox="0 0 16 16" fill="none" xmlns="http://www.w3.org/2000/svg">
<path d="M9.46665 1.91669C8.64889 1.91669 7.86464 2.24154 7.2864 2.81977C6.70816 3.39801 6.38331 4.18227 6.38331 5.00002V6.71669H4.73331C4.65047 6.71669 4.58331 6.78384 4.58331 6.86669V9.13335C4.58331 9.2162 4.65047 9.28335 4.73331 9.28335H6.38331V13.9334C6.38331 14.0162 6.45047 14.0834 6.53331 14.0834H8.79998C8.88282 14.0834 8.94998 14.0162 8.94998 13.9334V9.28335H10.6146C10.6834 9.28335 10.7434 9.23651 10.7601 9.16973L11.3268 6.90307C11.3505 6.80839 11.2788 6.71669 11.1813 6.71669H8.94998V5.00002C8.94998 4.86299 9.00441 4.73158 9.10131 4.63468C9.1982 4.53779 9.32962 4.48335 9.46665 4.48335H11.2C11.2828 4.48335 11.35 4.4162 11.35 4.33335V2.06669C11.35 1.98384 11.2828 1.91669 11.2 1.91669H9.46665Z" fill="white"/>
</svg>
